<?xml version="1.0" encoding="utf-8"?>
<!-- Generator: Adobe Illustrator 19.2.1, SVG Export Plug-In . SVG Version: 6.00 Build 0)  -->
<svg version="1.1" id="Layer_1" xmlns="http://www.w3.org/2000/svg" xmlns:xlink="http://www.w3.org/1999/xlink" x="0px" y="0px"
	 viewBox="0 0 1141 632" style="enable-background:new 0 0 1141 632;" xml:space="preserve">
<style type="text/css">
	.st0{font-family:'TimesNewRomanPSMT';}
	.st1{font-size:32.4133px;}
	.st2{fill:#7A411B;stroke:#653614;stroke-width:8;stroke-miterlimit:10;}
	.st3{fill:none;stroke:#000000;stroke-width:8;stroke-miterlimit:10;}
	.st4{fill:#FFFFFF;}
	.st5{font-size:39.8121px;}
</style>
<text transform="matrix(1 0 0 1 629.0009 319)" class="st0 st1">Divisão sugerida por Ana</text>
<g>
	<rect x="4" y="436" class="st2" width="181.7" height="192"/>
	<rect x="185.7" y="436" class="st2" width="181.7" height="192"/>
	<rect x="387.3" y="436" class="st2" width="181.7" height="192"/>
	<rect x="572" y="436" class="st2" width="181.7" height="192"/>
	<rect x="773.7" y="436" class="st2" width="181.7" height="192"/>
	<rect x="955.3" y="436" class="st2" width="181.7" height="192"/>
</g>
<g>
	<rect x="4" y="4" class="st2" width="545" height="192"/>
	<rect x="592" y="4" class="st2" width="545" height="192"/>
	<rect x="4" y="4" class="st2" width="181.7" height="192"/>
	<rect x="185.7" y="4" class="st2" width="181.7" height="192"/>
	<rect x="367.3" y="4" class="st2" width="181.7" height="192"/>
	<rect x="592" y="4" class="st2" width="181.7" height="192"/>
	<rect x="773.7" y="4" class="st2" width="181.7" height="192"/>
	<rect x="955.3" y="4" class="st2" width="181.7" height="192"/>
</g>
<g>
	<g>
		<line class="st3" x1="569" y1="250" x2="569" y2="365.4"/>
		<g>
			<path d="M569,358.2l14.4-8.8l0.3,0.5l-9.3,23.5c-1.8,8.2-3.6,16.4-5.4,24.6c-1.8-8.2-3.6-16.4-5.4-24.6l-9.3-23.5l0.2-0.5
				L569,358.2z"/>
		</g>
	</g>
</g>
<text transform="matrix(1 0 0 1 35.5043 89.0205)"><tspan x="0" y="0" class="st4 st0 st5">Parte de</tspan><tspan x="31.5" y="47.8" class="st4 st0 st5">Ana</tspan></text>
<text transform="matrix(1 0 0 1 211.8345 89.0205)"><tspan x="0" y="0" class="st4 st0 st5">Parte de</tspan><tspan x="7.2" y="47.8" class="st4 st0 st5">Beatriz</tspan></text>
<text transform="matrix(1 0 0 1 603.8345 523)"><tspan x="0" y="0" class="st4 st0 st5">Parte de</tspan><tspan x="7.2" y="47.8" class="st4 st0 st5">Beatriz</tspan></text>
<text transform="matrix(1 0 0 1 413.4994 522)"><tspan x="0" y="0" class="st4 st0 st5">Parte de</tspan><tspan x="7.2" y="47.8" class="st4 st0 st5">Beatriz</tspan></text>
<text transform="matrix(1 0 0 1 393.4967 89.0205)"><tspan x="0" y="0" class="st4 st0 st5">Parte de</tspan><tspan x="21.6" y="47.8" class="st4 st0 st5">Carla</tspan></text>
<text transform="matrix(1 0 0 1 811.4967 522)"><tspan x="0" y="0" class="st4 st0 st5">Parte de</tspan><tspan x="21.6" y="47.8" class="st4 st0 st5">Carla</tspan></text>
<text transform="matrix(1 0 0 1 976.1591 522)"><tspan x="0" y="0" class="st4 st0 st5">Parte de</tspan><tspan x="21.6" y="47.8" class="st4 st0 st5">Carla</tspan></text>
<text transform="matrix(1 0 0 1 618.1669 89.0205)"><tspan x="0" y="0" class="st4 st0 st5">Parte de</tspan><tspan x="31.5" y="47.8" class="st4 st0 st5">Ana</tspan></text>
<text transform="matrix(1 0 0 1 794.4971 89.0205)"><tspan x="0" y="0" class="st4 st0 st5">Parte de</tspan><tspan x="7.2" y="47.8" class="st4 st0 st5">Beatriz</tspan></text>
<text transform="matrix(1 0 0 1 976.1593 89.0205)"><tspan x="0" y="0" class="st4 st0 st5">Parte de</tspan><tspan x="21.6" y="47.8" class="st4 st0 st5">Carla</tspan></text>
<text transform="matrix(1 0 0 1 35.5043 522)"><tspan x="0" y="0" class="st4 st0 st5">Parte de</tspan><tspan x="31.5" y="47.8" class="st4 st0 st5">Ana</tspan></text>
<text transform="matrix(1 0 0 1 211.8317 522)"><tspan x="0" y="0" class="st4 st0 st5">Parte de</tspan><tspan x="31.5" y="47.8" class="st4 st0 st5">Ana</tspan></text>
</svg>
